# xmcd
#
# Track frame offsets: 
#        150
#        17895
#        37037
#        51582
#        67735
#        79497
#        97520
#        120972
#        136555
#
# Disc length: 2029 seconds
#
# Revision: 4
# Processed by: cddbd v1.5.2PL0 Copyright (c) Steve Scherf et al.
# Submitted via: ExactAudioCopy v1.0b1
#
DISCID=6807eb09
DTITLE=Various Artist - Country Rock Vol. 2 Slow Dancin'
DYEAR=1993
DGENRE=Country
TTITLE0=Linda Ronstadt - Blue Bayou
TTITLE1=Desert Rose Band - I Still Believe In You
TTITLE2=Nicolette Larson - Lotta Love
TTITLE3=Emmylou Harris - (Lost His Love) On Our Last Date
TTITLE4=Byrds - You Ain't Going Nowhere
TTITLE5=Flying Burrito Brothers - Do Right Woman
TTITLE6=Poco - Nothin' To Hide
TTITLE7=Randy Meisner - Deep Inside My Heart
TTITLE8=Southern Pacific - Help Wanted
EXTD=
EXTT0=
EXTT1=
EXTT2=
EXTT3=
EXTT4=
EXTT5=
EXTT6=
EXTT7=
EXTT8=
PLAYORDER=
